<svg width="256" height="256" viewBox="0 0 256 256" fill="none" xmlns="http://www.w3.org/2000/svg">
  <rect width="256" height="256" rx="48" fill="url(#bg)"/>
  <circle cx="190" cy="64" r="18" fill="#50D3A1" fill-opacity="0.35"/>
  <circle cx="68" cy="188" r="24" fill="#8BE0C1" fill-opacity="0.18"/>
  <path d="M58 66H126C157.48 66 178 84.64 178 113.16C178 132.52 166.08 146.36 147.12 151.16L190 198H150.8L115.44 158H92.32V198H58V66ZM92.32 129.2H121.36C137.6 129.2 144.32 122.48 144.32 112.04C144.32 101.6 137.6 95.08 121.36 95.08H92.32V129.2Z" fill="white"/>
  <path d="M70 198V66H104.32V198H70Z" fill="#BFE9D7" fill-opacity="0.32"/>
  <defs>
    <linearGradient id="bg" x1="18" y1="18" x2="224" y2="238" gradientUnits="userSpaceOnUse">
      <stop stop-color="#13324A"/>
      <stop offset="1" stop-color="#1F8F68"/>
    </linearGradient>
  </defs>
</svg>
